<?xml version="1.0" encoding="utf-8"?>
<!-- Generator: Adobe Illustrator 22.0.1, SVG Export Plug-In . SVG Version: 6.00 Build 0)  -->
<svg width="58" height="57" version="1.1" id="Слой_1" xmlns="http://www.w3.org/2000/svg" xmlns:xlink="http://www.w3.org/1999/xlink" x="0px" y="0px"
	 viewBox="0 0 495.6 490.2" style="enable-background:new 0 0 495.6 490.2;" xml:space="preserve">
<style type="text/css">
	.st0{fill:#179DCB;}
	.st1{clip-path:url(#SVGID_2_);fill:#474B52;}
	.st2{clip-path:url(#SVGID_2_);fill:#179DCB;}
</style>
<rect x="175.6" y="408" class="st0" width="16" height="16"/>
<rect x="175.6" y="376" class="st0" width="16" height="16"/>
<g>
	<defs>
		<rect id="SVGID_1_" width="495.6" height="490.2"/>
	</defs>
	<clipPath id="SVGID_2_">
		<use xlink:href="#SVGID_1_"  style="overflow:visible;"/>
	</clipPath>
	<path class="st1" d="M423.3,296l-14.4,0.1l-4.8-14.3l-4.5-0.9c-5.3-1.1-10.6-1.1-15.9,0l-4.5,0.9l-4.7,14.3l-15.3-0.1l-2.3,4.2
		c-2.6,4.7-4.6,11.1-5.2,16.7l-0.5,4.5l12.5,9.4l-4.8,15.3l3,3.4c3.6,4.1,8,7.4,12.8,9.7l4.4,2.1l12.5-9.5l12.5,9.5l4.4-2.1
		c4.8-2.3,9.1-5.6,12.8-9.7l3-3.4l-4.8-15.3l12.5-9.4l-0.5-4.5c-0.5-4.7-2.5-10.3-6-16.7L423.3,296z M400.9,324.8l5.3,17.1
		c-0.2,0.2-0.4,0.3-0.6,0.5l-14-10.6l-14,10.6c-0.2-0.2-0.4-0.3-0.6-0.5l5.3-17.1l-13.9-10.5c0.2-0.8,0.4-1.6,0.7-2.3l16.9,0.1
		l5.3-16.1c0.2,0,0.4,0,0.7,0l5.4,16.1l16.2-0.1c0.4,0.9,0.7,1.7,1,2.5L400.9,324.8z"/>
	<path class="st1" d="M391.6,248c-39.7,0-72,32.3-72,72s32.3,72,72,72s72-32.3,72-72S431.3,248,391.6,248 M391.6,376
		c-30.9,0-56-25.1-56-56s25.1-56,56-56s56,25.1,56,56S422.5,376,391.6,376"/>
	<path class="st1" d="M471.6,0h-152c-13.2,0-24,10.8-24,24v104c0,13.2,10.8,24,24,24h48v24.4c0,13,10.6,23.6,23.6,23.6
		c7.9,0,15.3-3.9,19.7-10.5l25-37.5h35.7c13.2,0,24-10.8,24-24V24C495.6,10.8,484.8,0,471.6,0 M479.6,128c0,4.4-3.6,8-8,8h-44.3
		l-29.7,44.6c-1.4,2.1-3.8,3.4-6.4,3.4c-4.2,0-7.6-3.4-7.6-7.6V136h-64c-4.4,0-8-3.6-8-8V24c0-4.4,3.6-8,8-8h152c4.4,0,8,3.6,8,8
		V128z"/>
	<polygon class="st1" points="383.6,92.7 365.3,74.3 354,85.7 383.6,115.3 453.3,45.7 442,34.3 	"/>
	<path class="st1" d="M391.6,216L391.6,216c-42.9,0-79.8,26.1-95.6,63.2l-5.2,15.9c-2,8-3.1,16.3-3.1,24.9c0,29.4,12.3,55.9,32,74.9
		V440v16v34.2l72-18l72,18v-95.4c19.7-18.9,32-45.5,32-74.9C495.6,262.7,449,216,391.6,216 M447.6,469.8l-56-14l-56,14v-62.3
		c16.2,10.4,35.4,16.5,56,16.5c20.6,0,39.8-6.1,56-16.5V469.8z M391.6,408c-48.5,0-88-39.5-88-88s39.5-88,88-88s88,39.5,88,88
		S440.1,408,391.6,408"/>
	<path class="st2" d="M320,440h-48V336h-16v104h-96v-68.4l15.6-13.9c26.2-23.3,44.4-54.5,52.1-88.6l44.2,15.6
		c6.9,2.4,13.3,6,19.2,10.4l5.2-15.9c-3.8-2.5-7.8-4.8-12-6.7c0.5-0.6,1-1.2,1.5-1.8c4.3-4.6,10.1-11,10.1-22.8
		c0-11.8-5.8-18.1-10.1-22.8c-3.7-4-5.9-6.4-5.9-11.9c0-5.5,2.2-7.9,5.9-11.9c4.3-4.6,10.1-11,10.1-22.8s-5.8-18.1-10.1-22.8
		c-3.7-4-5.9-6.4-5.9-11.9v-38.7C280,47.2,232.8,0,174.7,0c-32.2,0-62.1,14.4-82.2,39.5L91.4,41C70.4,47.5,56,66.8,56,89v55
		c0,5.5-2.2,7.9-5.9,11.9c-4.3,4.6-10.1,11-10.1,22.8s5.8,18.1,10.1,22.8c3.7,4,5.9,6.4,5.9,11.9c0,5.5-2.2,7.9-5.9,11.9
		c-4.3,4.6-10.1,11-10.1,22.8c0,11.8,5.8,18.1,10.1,22.8c0.6,0.6,1,1.2,1.5,1.8C20.5,286.7,0,317.9,0,352.6V456h320V440z M168,342.8
		c-4.8-4.5-9.3-9.2-13.4-14.3l13.4-18.8l13.4,18.8C177.3,333.6,172.8,338.3,168,342.8 M150.3,241.2c4.9,2.4,9.9,4.6,15.2,6.4
		l2.5,0.8l2.5-0.8c5.3-1.8,10.3-3.9,15.2-6.4c1,2.8,2.3,5.5,3.9,7.9L168,281.6l-21.6-32.5C148,246.7,149.3,244,150.3,241.2
		 M104,140.1V120h6.1c21.4,0,41.7-7.5,57.9-21.1c16.2,13.7,36.5,21.1,57.9,21.1h6.1v20.1c0,41.1-25.6,77.5-64,91.4
		C129.6,217.6,104,181.2,104,140.1 M158.3,295.8l-13.6,19.1c-10.1-15.6-17.3-32.9-21.2-51.2l7.2-2.5c1.2-0.4,2.4-1,3.5-1.6
		L158.3,295.8z M191.4,314.9l-13.6-19.1l24.1-36.2c1.1,0.6,2.3,1.1,3.5,1.6l7.2,2.5C208.6,282,201.5,299.4,191.4,314.9 M61.9,236
		c4.3-4.6,10.1-11,10.1-22.8c0-11.8-5.8-18.1-10.1-22.8c-3.7-4-5.9-6.4-5.9-11.9c0-5.5,2.2-7.9,5.9-11.9c4.3-4.6,10.1-11,10.1-22.8
		V89c0-15.7,10.7-29.4,25.9-33.2l2.6-0.7l4.5-5.6c17-21.3,42.4-33.5,69.7-33.5C224,16,264,56,264,105.3V144
		c0,11.8,5.8,18.1,10.1,22.8c3.7,4,5.9,6.4,5.9,11.9c0,5.5-2.2,7.9-5.9,11.9c-4.3,4.6-10.1,11-10.1,22.8c0,11.8,5.8,18.1,10.1,22.8
		c3.7,4,5.9,6.4,5.9,11.9c0,5.6-2.2,8-5.9,12c-1.7,1.9-3.7,4.1-5.4,6.7l-58-20.5c-5.9-2.1-9.9-7.5-10.4-13.6
		c29.4-20.8,47.8-54.9,47.8-92.4V104h-22.1c-19.8,0-38.3-7.7-52.3-21.7l-5.7-5.7l-5.7,5.7c-14,14-32.5,21.7-52.3,21.7H88v36.1
		c0,37.4,18.3,71.5,47.8,92.4c-0.6,6.2-4.5,11.5-10.4,13.6l-58,20.5c-1.7-2.6-3.7-4.8-5.4-6.7c-3.7-4-5.9-6.4-5.9-12
		C56,242.4,58.2,240,61.9,236 M144,364.4V440H80V328H64v112H16v-87.4c0-30.5,19.3-57.8,48-67.9l44.2-15.6
		c7.3,32.2,24,61.7,47.9,84.5L144,364.4z"/>
</g>
</svg>
