<svg width="81" height="49" viewBox="0 0 81 49" fill="none" xmlns="http://www.w3.org/2000/svg"><path d="M22.613 18.064c0 1.024.128 1.792.256 2.303.256.64.512 1.28.896 1.92.128.257.128.385.128.64 0 .256-.128.512-.512.768l-1.664 1.152c-.256.128-.512.256-.64.256-.256 0-.512-.128-.768-.384-.384-.384-.64-.768-1.024-1.28-.256-.512-.512-.895-.768-1.535-2.047 2.431-4.735 3.711-7.807 3.711-2.304 0-4.096-.64-5.376-1.92-1.28-1.28-1.92-2.944-1.92-5.12 0-2.303.768-4.095 2.432-5.503 1.664-1.408 3.84-2.048 6.528-2.048.896 0 1.792.128 2.816.256 1.024.128 2.048.384 3.072.64V10c0-2.048-.384-3.456-1.28-4.224-.896-.768-2.304-1.28-4.352-1.28-.896 0-1.92.128-2.944.384a25.8 25.8 0 00-2.944.896c-.384.128-.768.256-.896.384-.128 0-.384.128-.384.128-.384 0-.512-.256-.512-.768V4.24c0-.384 0-.768.128-.896s.384-.384.768-.512c.896-.512 2.048-.896 3.328-1.152 1.28-.384 2.688-.512 4.224-.512 3.2 0 5.503.768 7.04 2.176 1.407 1.408 2.175 3.584 2.175 6.528v8.192zm-10.88 4.096a7.74 7.74 0 002.817-.512c1.024-.256 1.792-.896 2.56-1.664.384-.512.768-1.024.896-1.664.128-.64.256-1.408.256-2.304v-1.152c-.768-.128-1.665-.384-2.432-.512-.896-.128-1.664-.128-2.56-.128-1.792 0-3.072.384-3.968 1.024-.896.64-1.28 1.664-1.28 3.072 0 1.28.384 2.175 1.024 2.816.512.768 1.536 1.024 2.688 1.024zm21.504 2.815c-.512 0-.768-.128-1.024-.256s-.384-.512-.512-1.024L25.429 3.216c-.128-.512-.256-.896-.256-1.024 0-.384.256-.64.64-.64h2.56c.512 0 .896.128 1.024.256.256.128.384.512.512 1.024l4.48 17.535 4.224-17.535c.128-.512.256-.896.512-1.024s.64-.256 1.024-.256h2.175c.513 0 .897.128 1.025.256.256.128.384.512.512 1.024l4.223 17.791 4.608-17.79c.128-.513.384-.897.512-1.025.256-.128.512-.256 1.024-.256h2.432c.384 0 .64.256.64.64v.384c0 .128-.128.384-.128.64l-6.4 20.48c-.128.511-.384.895-.512 1.023-.128.128-.512.256-1.024.256h-2.304c-.512 0-.896-.128-1.024-.256s-.384-.512-.512-1.024l-4.095-17.15-4.224 17.15c-.128.512-.256.896-.512 1.024s-.64.256-1.024.256h-2.304zm34.303.768c-1.408 0-2.816-.128-4.096-.512-1.28-.256-2.432-.64-3.072-1.024-.384-.256-.768-.512-.768-.768-.128-.256-.128-.512-.128-.767v-1.409c0-.512.256-.768.64-.768.128 0 .384 0 .512.128.128 0 .384.128.64.256.896.384 1.92.768 2.944.896 1.024.257 2.048.257 3.2.257 1.663 0 2.944-.256 3.84-.896.895-.64 1.407-1.408 1.407-2.56 0-.768-.256-1.408-.768-1.92s-1.408-.896-2.688-1.408l-3.84-1.152c-1.92-.64-3.455-1.536-4.223-2.688-.896-1.152-1.28-2.432-1.28-3.84 0-1.152.256-2.048.768-2.944.512-.896 1.152-1.536 1.92-2.176.768-.64 1.664-1.024 2.816-1.408C66.388.784 67.54.528 68.692.528c.64 0 1.152 0 1.791.128.64.128 1.152.128 1.792.256l1.536.384c.512.128.896.256 1.152.512.384.256.64.384.768.64s.256.512.256.896v1.28c0 .512-.256.896-.64.896-.256 0-.512-.128-1.024-.256a13.044 13.044 0 00-5.12-1.024c-1.535 0-2.687.256-3.583.768-.768.512-1.28 1.28-1.28 2.304 0 .768.256 1.408.768 1.92s1.536 1.024 2.944 1.408l3.84 1.152c1.92.64 3.327 1.408 4.095 2.56.768 1.152 1.28 2.304 1.28 3.712a7.733 7.733 0 01-.64 3.072 8.382 8.382 0 01-1.92 2.303c-.768.64-1.792 1.152-2.944 1.536-1.535.64-2.816.768-4.223.768z" fill="#A3A3A3"/><path d="M72.656 38.923c-8.832 6.4-21.631 9.856-32.51 9.856-15.36 0-29.312-5.632-39.807-14.976-.768-.768-.128-1.792.896-1.152C12.626 39.18 26.578 43.147 41.04 43.147c9.728 0 20.48-2.048 30.335-6.144 1.408-.768 2.688.896 1.28 1.92z" fill="#F5891F"/><path d="M76.238 34.827c-1.152-1.408-7.424-.64-10.24-.384-.895.128-1.023-.64-.255-1.152 4.991-3.456 13.311-2.432 14.207-1.28 1.024 1.152-.256 9.344-4.992 13.312-.768.64-1.408.256-1.152-.512 1.28-2.688 3.584-8.576 2.432-9.984z" fill="#F5891F"/></svg>