<svg width="77" height="65" viewBox="0 0 77 65" fill="none" xmlns="http://www.w3.org/2000/svg"><path d="M49.353 12.576H27.126L13.965 32.464 26.98 52.35h22.373l13.015-19.887-13.015-19.888zM38.239 41.384c-5.264 0-9.358-3.948-9.358-9.066 0-5.119 4.094-9.067 9.358-9.067 5.265 0 9.36 3.948 9.36 9.067 0 5.118-4.095 9.066-9.36 9.066z" fill="#BFC7CB"/><path d="M58.272 2.193A4.86 4.86 0 0054.177 0H22.152c-1.608 0-3.217.877-4.094 2.193L7.383 19.303l8.628 13.16 11.698-17.986h38.313l-7.75-12.284zm-34.95 6.873c-1.17 0-1.9-.73-1.9-1.754s.73-1.755 1.9-1.755 1.901.731 1.901 1.755c0 1.023-.731 1.754-1.9 1.754zm29.832 0c-1.17 0-1.902-.73-1.902-1.754s.732-1.755 1.901-1.755c1.17 0 1.901.731 1.901 1.755-.146 1.023-.877 1.754-1.9 1.754z" fill="#3E81C2"/><path d="M27.565 50.45L7.385 19.449.658 30.124a4.752 4.752 0 000 4.825l17.548 27.784c.877 1.463 2.486 2.194 4.094 2.194h16.963l9.505-14.477H27.565zM8.408 34.218c-1.17 0-1.9-.731-1.9-1.755 0-1.023.73-1.754 1.9-1.754s1.901.73 1.901 1.754-.73 1.755-1.9 1.755zm14.916 25.298c-1.17 0-1.901-.73-1.901-1.754s.731-1.755 1.901-1.755 1.901.73 1.901 1.755c0 1.023-.731 1.754-1.901 1.754z" fill="#FBB116"/><path d="M7.383 19.449l8.628 13.015 4.533-6.727-10.968-9.505-2.193 3.217z" fill="#2376BB"/><path d="M39.414 64.927l9.505-14.477h-8.92l-4.241 14.477h3.656z" fill="#E99925"/><path d="M75.818 30.124l-9.944-15.647H48.765l11.699 17.987-21.058 32.463h14.916c1.608 0 3.217-.877 4.094-2.193L76.111 34.95c.877-1.609.877-3.364-.293-4.826zM53.152 59.517c-1.17 0-1.9-.732-1.9-1.755 0-1.024.73-1.755 1.9-1.755s1.901.731 1.901 1.755c0 1.023-.877 1.755-1.9 1.755zm14.916-25.299c-1.17 0-1.901-.73-1.901-1.754s.73-1.755 1.9-1.755 1.902.731 1.902 1.755c-.146 1.023-.878 1.754-1.901 1.754z" fill="#CC3127"/><path d="M65.879 14.477h-17.11l4.68 7.02 14.77-3.364-2.34-3.656z" fill="#AE3925"/></svg>